<svg width="25" height="42" viewBox="0 0 25 42" fill="none" xmlns="http://www.w3.org/2000/svg">
<path d="M12.5 41.375H6.1825C2.76813 41.375 0 38.6069 0 35.1925V6.25C0 2.79812 2.79813 0 6.25 0H12.5V41.375Z" fill="#94CCFF"/>
<path d="M25 6.25C25 9.70187 22.2019 12.5 18.75 12.5H6.25C2.79813 12.5 0 9.70187 0 6.25C0 2.79813 2.79813 0 6.25 0H18.75C22.2019 0 25 2.79813 25 6.25Z" fill="#94CCFF"/>
<path d="M0 6.25C0 2.79813 2.79813 0 6.25 0H12.5V12.5H6.25C2.79813 12.5 0 9.70187 0 6.25Z" fill="#579AEA"/>
<path d="M12.5 14.4375H6.25C2.79822 14.4375 0 17.2357 0 20.6875C0 24.1393 2.79822 26.9375 6.25 26.9375H12.5C15.9518 26.9375 18.75 24.1393 18.75 20.6875C18.75 17.2357 15.9518 14.4375 12.5 14.4375Z" fill="#579AEA"/>
<path d="M12.5 26.9375C15.9518 26.9375 18.75 24.1393 18.75 20.6875C18.75 17.2357 15.9518 14.4375 12.5 14.4375C9.04822 14.4375 6.25 17.2357 6.25 20.6875C6.25 24.1393 9.04822 26.9375 12.5 26.9375Z" fill="#4474E0"/>
<path d="M25 35.125C25 38.5769 22.2019 41.375 18.75 41.375H6.25C2.79813 41.375 0 38.5769 0 35.125C0 31.6731 2.79813 28.875 6.25 28.875H18.75C22.2019 28.875 25 31.6731 25 35.125Z" fill="#94CCFF"/>
<path d="M0 35.125C0 31.6731 2.79813 28.875 6.25 28.875H12.5V41.375H6.25C2.79813 41.375 0 38.5769 0 35.125Z" fill="#579AEA"/>
<path d="M25 35.125C25 38.5769 22.2019 41.375 18.75 41.375C15.2981 41.375 12.5 38.5769 12.5 35.125C12.5 31.6731 15.2981 28.875 18.75 28.875C22.2019 28.875 25 31.6731 25 35.125Z" fill="#4474E0"/>
<path d="M12.5 26.9375C9.04813 26.9375 6.25 24.1394 6.25 20.6875C6.25 17.2356 9.04813 14.4375 12.5 14.4375V26.9375Z" fill="#1164C9"/>
<path d="M6.25 12.5C9.70178 12.5 12.5 9.70178 12.5 6.25C12.5 2.79822 9.70178 0 6.25 0C2.79822 0 0 2.79822 0 6.25C0 9.70178 2.79822 12.5 6.25 12.5Z" fill="#4474E0"/>
</svg>
