<svg width="24" height="25" viewBox="0 0 24 25" fill="none" xmlns="http://www.w3.org/2000/svg">
<g clip-path="url(#clip0_178_579)">
<path fill-rule="evenodd" clip-rule="evenodd" d="M4.22222 22.375H19.7778C21.0051 22.375 22 21.3801 22 20.1528V4.59722C22 3.36992 21.0051 2.375 19.7778 2.375H4.22222C2.99492 2.375 2 3.36992 2 4.59722V20.1528C2 21.3801 2.99492 22.375 4.22222 22.375Z" fill="#0F0F0F"/>
<path fill-rule="evenodd" clip-rule="evenodd" d="M19.2218 19.5972H16.2539V14.5422C16.2539 13.1563 15.7273 12.3818 14.6303 12.3818C13.437 12.3818 12.8135 13.1878 12.8135 14.5422V19.5972H9.95327V9.96759H12.8135V11.2647C12.8135 11.2647 13.6735 9.67339 15.7169 9.67339C17.7595 9.67339 19.2218 10.9207 19.2218 13.5003V19.5972ZM6.54105 8.70666C5.5668 8.70666 4.77734 7.91101 4.77734 6.92972C4.77734 5.94843 5.5668 5.15277 6.54105 5.15277C7.5153 5.15277 8.30429 5.94843 8.30429 6.92972C8.30429 7.91101 7.5153 8.70666 6.54105 8.70666ZM5.06416 19.5972H8.04662V9.96759H5.06416V19.5972Z" fill="white"/>
</g>
<defs>
<clipPath id="clip0_178_579">
<rect width="20" height="20" fill="white" transform="translate(2 2.375)"/>
</clipPath>
</defs>
</svg>
